<?xml version="1.0" encoding="UTF-8" standalone="no" ?>
<!DOCTYPE svg PUBLIC "-//W3C//DTD SVG 1.1//EN" "http://www.w3.org/Graphics/SVG/1.1/DTD/svg11.dtd">
<svg xmlns="http://www.w3.org/2000/svg" xmlns:xlink="http://www.w3.org/1999/xlink" version="1.1" width="350" height="430" viewBox="0 0 350 430" xml:space="preserve">
<desc>Created with Fabric.js 3.6.3</desc>
<defs>
</defs>
<g transform="matrix(0.96 0 0 0.96 174.11 214.38)"  >
<path style="stroke: none; stroke-width: 1; stroke-dasharray: none; stroke-linecap: butt; stroke-dashoffset: 0; stroke-linejoin: miter; stroke-miterlimit: 4; fill: rgb(254,98,2); fill-rule: nonzero; opacity: 1;"  transform=" translate(-262.41, -242.5)" d="M 314.78 19.47 c -18.84 33 -23.783 72.886 5.876 69.56 c 24.07 -2.696 16.35 -40.304 -5.875 -69.56 z m -122.217 4 c -17.095 33.8 -19.95 73.854 9.5 69.218 c 23.9 -3.764 14.227 -40.983 -9.5 -69.22 z m 222.125 75.343 c -21.958 30.365 -30.705 69.304 -0.813 69.687 c 24.262 0.312 20.163 -37.94 0.813 -69.688 z m -318.063 3.25 C 79.9 134.972 79 173.245 103.25 171.22 c 29.88 -2.498 17.868 -40.543 -6.625 -69.157 z m 217.594 8.374 c -55.61 2.262 -50.322 118.727 2.592 116.594 c 52.018 -2.088 52.118 -118.81 -2.593 -116.593 z m -107.095 1.844 c -0.828 0.016 -1.648 0.084 -2.5 0.157 c -55.42 4.785 -43.925 120.847 8.813 116.313 c 51.033 -4.38 45.872 -117.42 -6.313 -116.47 z m -82.875 83.44 a 35.508 35.508 0 0 0 -4.938 0.28 c -55.146 6.99 -38.225 122.506 14.25 115.875 c 49.975 -6.31 40.645 -115.58 -9.312 -116.156 z m 278.625 1.343 c -55.653 -1.027 -58.487 115.502 -5.53 116.5 c 52.054 0.986 60.284 -115.482 5.53 -116.5 z m -145 67.218 c -57.02 1.258 -12.988 60.186 -113.78 94.44 c -78.123 26.548 -30.808 106.533 36.06 106.81 c 36.702 0.154 49.8 -28.817 79.845 -28.686 c 34.116 0.144 36.844 26.134 86.78 26.344 c 63.76 0.263 100.665 -80.2 27.72 -107.532 c -92.875 -34.798 -54 -90.786 -113.813 -91.375 c -0.957 -0.008 -1.907 -0.02 -2.812 0 z" stroke-linecap="round" />
</g>
</svg>